<?xml version="1.0" encoding="UTF-8"?>
<svg xmlns="http://www.w3.org/2000/svg" xmlns:xlink="http://www.w3.org/1999/xlink" width="48px" height="48px" viewBox="0 0 48 48" version="1.1">
<g id="surface1">
<path style="fill-rule:nonzero;fill:rgb(100%,100%,100%);fill-opacity:1;stroke-width:1;stroke-linecap:butt;stroke-linejoin:miter;stroke:rgb(100%,100%,100%);stroke-opacity:1;stroke-miterlimit:4;" d="M 122.408326 0 L 46.654674 0 C 20.926499 0 0 20.926499 0 46.654674 L 0 122.408326 C 0 148.136501 20.926499 169.063 46.654674 169.063 L 122.408326 169.063 C 148.136501 169.063 169.063 148.136501 169.063 122.408326 L 169.063 46.654674 C 169.063 20.926499 148.136501 0 122.408326 0 Z M 154.066363 122.408326 C 154.066363 139.867713 139.867713 154.066363 122.408326 154.066363 L 46.654674 154.066363 C 29.195287 154.066363 14.996637 139.867713 14.996637 122.408326 L 14.996637 46.654674 C 14.996637 29.195287 29.195287 14.996637 46.654674 14.996637 L 122.408326 14.996637 C 139.867713 14.996637 154.066363 29.195287 154.066363 46.654674 Z M 154.066363 122.408326 " transform="matrix(0.283918,0,0,0.283918,0,0)"/>
<path style="fill-rule:nonzero;fill:rgb(100%,100%,100%);fill-opacity:1;stroke-width:1;stroke-linecap:butt;stroke-linejoin:miter;stroke:rgb(100%,100%,100%);stroke-opacity:1;stroke-miterlimit:4;" d="M 84.5315 40.972462 C 60.509365 40.972462 40.972462 60.509365 40.972462 84.5315 C 40.972462 108.553635 60.509365 128.090538 84.5315 128.090538 C 108.553635 128.090538 128.090538 108.553635 128.090538 84.5315 C 128.090538 60.509365 108.553635 40.972462 84.5315 40.972462 Z M 84.5315 113.093901 C 68.778152 113.093901 55.969099 100.284848 55.969099 84.5315 C 55.969099 68.778152 68.778152 55.969099 84.5315 55.969099 C 100.284848 55.969099 113.093901 68.778152 113.093901 84.5315 C 113.093901 100.284848 100.284848 113.093901 84.5315 113.093901 Z M 84.5315 113.093901 " transform="matrix(0.283918,0,0,0.283918,0,0)"/>
<path style="fill-rule:nonzero;fill:rgb(100%,100%,100%);fill-opacity:1;stroke-width:1;stroke-linecap:butt;stroke-linejoin:miter;stroke:rgb(100%,100%,100%);stroke-opacity:1;stroke-miterlimit:4;" d="M 129.920403 28.245959 C 127.031142 28.245959 124.196916 29.415421 122.146917 31.46542 C 120.096918 33.515419 118.927455 36.349646 118.927455 39.252664 C 118.927455 42.141925 120.096918 44.976151 122.146917 47.02615 C 124.196916 49.076149 127.031142 50.245612 129.920403 50.245612 C 132.823421 50.245612 135.657648 49.076149 137.707647 47.02615 C 139.757646 44.976151 140.927108 42.141925 140.927108 39.252664 C 140.927108 36.349646 139.757646 33.515419 137.707647 31.46542 C 135.657648 29.415421 132.823421 28.245959 129.920403 28.245959 Z M 129.920403 28.245959 " transform="matrix(0.283918,0,0,0.283918,0,0)"/>
</g>
</svg>
